<?xml version="1.0" encoding="UTF-8" standalone="no"?>
<!-- Created with Inkscape (http://www.inkscape.org/) -->

<svg
   xmlns:dc="http://purl.org/dc/elements/1.1/"
   xmlns:cc="http://creativecommons.org/ns#"
   xmlns:rdf="http://www.w3.org/1999/02/22-rdf-syntax-ns#"
   xmlns:svg="http://www.w3.org/2000/svg"
   xmlns="http://www.w3.org/2000/svg"
   xmlns:sodipodi="http://sodipodi.sourceforge.net/DTD/sodipodi-0.dtd"
   xmlns:inkscape="http://www.inkscape.org/namespaces/inkscape"
   id="svg3257"
   version="1.1"
   inkscape:version="0.48.1 "
   width="766.25"
   height="768.75"
   xml:space="preserve"
   sodipodi:docname="litterdisposal2.pdf"><metadata
     id="metadata3263"><rdf:RDF><cc:Work
         rdf:about=""><dc:format>image/svg+xml</dc:format><dc:type
           rdf:resource="http://purl.org/dc/dcmitype/StillImage" /><dc:title></dc:title></cc:Work></rdf:RDF></metadata><defs
     id="defs3261" /><sodipodi:namedview
     pagecolor="#ffffff"
     bordercolor="#666666"
     borderopacity="1"
     objecttolerance="10"
     gridtolerance="10"
     guidetolerance="10"
     inkscape:pageopacity="0"
     inkscape:pageshadow="2"
     inkscape:window-width="640"
     inkscape:window-height="480"
     id="namedview3259"
     showgrid="false"
     inkscape:zoom="0.37853659"
     inkscape:cx="383.125"
     inkscape:cy="384.375"
     inkscape:window-x="631"
     inkscape:window-y="75"
     inkscape:window-maximized="0"
     inkscape:current-layer="g3265" /><g
     id="g3265"
     inkscape:groupmode="layer"
     inkscape:label="litterdisposal2"
     transform="matrix(1.25,0,0,-1.25,0,768.75)"><g
       id="g3267"
       transform="scale(0.24,0.24)"><path
         d="m 345.25,2483.25 c -171.98,0.34 -268.7969,-88.7 -269,-271 l 0,-1875 c 0.2031,-170.328 87.25,-259.4336 259,-259 l 1884,0 c 171.87,-0.4336 259.05,84.234 259,259 l 0,1875 c 0.05,177.86 -87.13,271.34 -265,271 0,0 -1868.344,0.93 -1868,0"
         style="fill:#000000;fill-opacity:1;fill-rule:nonzero;stroke:none"
         id="path3269" /><path
         d="m 345.25,2483.25 c -171.98,0.34 -268.7969,-88.7 -269,-271 l 0,-1875 c 0.2031,-170.328 87.25,-259.4336 259,-259 l 1884,0 c 171.87,-0.4336 259.05,84.234 259,259 l 0,1875 c 0.05,177.86 -87.13,271.34 -265,271 0,0 -1868.344,0.93 -1868,0 z"
         style="fill:none;stroke:#ffffff;stroke-opacity:1;stroke-width:14.2;stroke-linecap:butt;stroke-linejoin:miter;stroke-miterlimit:10;stroke-dasharray:none"
         id="path3271" /><path
         d="m 1594.25,1945.25 c 94.37,-0.24 170.55,75.94 171,170 -0.45,93.87 -76.63,170.05 -171,170 -93.56,0.05 -169.73,-76.13 -170,-170 0.27,-94.06 76.44,-170.24 170,-170"
         style="fill:#ffffff;fill-opacity:1;fill-rule:nonzero;stroke:none"
         id="path3273" /><path
         d="m 1376.25,1632.25 1,-1299 c -0.17,-129.852 190.91,-128.664 191,3 l 0,756 37,0 0,-756 c 0.1,-131.305 193.4,-134.633 193,-3 l 1,1304 33,0 0,-465 c 0.09,-112.15 151.84,-112.15 152,-2 l 0,509 c -0.16,137.23 -102.12,217.9 -210,218 l -302,0 c -72.25,-0.1 -124.33,-28.5 -168,-91 l -153,-223 -266,0 c -106.684,-0.14 -100.691,-151.56 -2,-152 l 306,0 c 24.3,0.44 53.46,9.38 70,34 l 117,167"
         style="fill:#ffffff;fill-opacity:1;fill-rule:nonzero;stroke:none"
         id="path3275" /><path
         d="m 752.25,835.25 125,0 0,125 -125,0 0,-125 z"
         style="fill:#ffffff;fill-opacity:1;fill-rule:nonzero;stroke:none"
         id="path3277" /><path
         d="m 944.25,1112.25 -91,90 -90,-90 90,-91 91,91"
         style="fill:#ffffff;fill-opacity:1;fill-rule:nonzero;stroke:none"
         id="path3279" /><path
         d="m 860.25,1283.25 -91,90 -91,-90 91,-91 91,91"
         style="fill:#ffffff;fill-opacity:1;fill-rule:nonzero;stroke:none"
         id="path3281" /><path
         d="m 1048.25,237.25 161,859 -121,0 -142,-739 -210,0 -138,739 -122,0 159,-859 413,0"
         style="fill:#ffffff;fill-opacity:1;fill-rule:nonzero;stroke:none"
         id="path3283" /></g></g></svg>